{
    "asset" : {
        "generator" : "Khronos glTF Blender I/O v1.6.16",
        "version" : "2.0"
    },
    "scene" : 0,
    "scenes" : [
        {
            "name" : "Scene",
            "nodes" : [
                0,
                1,
                2,
                3,
                4,
                5
            ]
        }
    ],
    "nodes" : [
        {
            "name" : "Light",
            "rotation" : [
                0.16907575726509094,
                0.7558803558349609,
                -0.27217137813568115,
                0.570947527885437
            ],
            "scale" : [
                0.125,
                0.125,
                0.1250000149011612
            ],
            "translation" : [
                0.5771549940109253,
                9.73346996307373,
                0.7377007603645325
            ]
        },
        {
            "name" : "Camera",
            "rotation" : [
                0.483536034822464,
                0.33687159419059753,
                -0.20870360732078552,
                0.7804827094078064
            ],
            "scale" : [
                0.125,
                0.125,
                0.125
            ],
            "translation" : [
                0.9874857664108276,
                9.615275382995605,
                1.7291064262390137
            ]
        },
        {
            "mesh" : 0,
            "name" : "pokecenter_1",
            "rotation" : [
                0.7071068286895752,
                0,
                0,
                0.7071067094802856
            ],
            "scale" : [
                0.0625,
                0.0625,
                0.0625
            ],
            "translation" : [
                0.06762433052062988,
                10.87048625946045,
                0.8633825182914734
            ]
        },
        {
            "mesh" : 1,
            "name" : "pokecenter_2",
            "rotation" : [
                0.7071068286895752,
                0,
                0,
                0.7071067094802856
            ],
            "scale" : [
                0.0625,
                0.0625,
                0.0625
            ],
            "translation" : [
                0.06762433052062988,
                10.87048625946045,
                0.8633825182914734
            ]
        },
        {
            "mesh" : 2,
            "name" : "pokecenter_3",
            "rotation" : [
                0.7071068286895752,
                0,
                0,
                0.7071067094802856
            ],
            "scale" : [
                0.0625,
                0.0625,
                0.0625
            ],
            "translation" : [
                0.06762433052062988,
                10.87048625946045,
                0.8633825182914734
            ]
        },
        {
            "mesh" : 3,
            "name" : "pokecenter_1_door",
            "rotation" : [
                0.7071068286895752,
                0,
                0,
                0.7071067094802856
            ],
            "scale" : [
                0.0625,
                0.0625,
                0.0625
            ],
            "translation" : [
                0.06762433052062988,
                10.87048625946045,
                0.8633825182914734
            ]
        }
    ],
    "materials" : [
        {
            "doubleSided" : true,
            "name" : "pokecen_01",
            "pbrMetallicRoughness" : {
                "baseColorTexture" : {
                    "index" : 0
                },
                "metallicFactor" : 0,
                "roughnessFactor" : 0.5136363506317139
            }
        },
        {
            "doubleSided" : true,
            "name" : "pc_mado",
            "pbrMetallicRoughness" : {
                "baseColorTexture" : {
                    "index" : 1
                },
                "metallicFactor" : 0,
                "roughnessFactor" : 0.6732679605484009
            }
        },
        {
            "doubleSided" : true,
            "name" : "pokecen00",
            "pbrMetallicRoughness" : {
                "baseColorTexture" : {
                    "index" : 2
                },
                "metallicFactor" : 0,
                "roughnessFactor" : 0.6732679605484009
            }
        },
        {
            "doubleSided" : true,
            "name" : "door",
            "pbrMetallicRoughness" : {
                "baseColorTexture" : {
                    "index" : 3
                },
                "metallicFactor" : 0,
                "roughnessFactor" : 0.48636364936828613
            }
        }
    ],
    "meshes" : [
        {
            "name" : "pokecenter_1",
            "primitives" : [
                {
                    "attributes" : {
                        "POSITION" : 0,
                        "NORMAL" : 1,
                        "TEXCOORD_0" : 2
                    },
                    "indices" : 3,
                    "material" : 0
                }
            ]
        },
        {
            "name" : "pokecenter_2",
            "primitives" : [
                {
                    "attributes" : {
                        "POSITION" : 4,
                        "NORMAL" : 5,
                        "TEXCOORD_0" : 6
                    },
                    "indices" : 7,
                    "material" : 1
                }
            ]
        },
        {
            "name" : "pokecenter_3",
            "primitives" : [
                {
                    "attributes" : {
                        "POSITION" : 8,
                        "NORMAL" : 9,
                        "TEXCOORD_0" : 10
                    },
                    "indices" : 11,
                    "material" : 2
                }
            ]
        },
        {
            "name" : "pokecenter_1.001",
            "primitives" : [
                {
                    "attributes" : {
                        "POSITION" : 12,
                        "NORMAL" : 13,
                        "TEXCOORD_0" : 14
                    },
                    "indices" : 15,
                    "material" : 3
                }
            ]
        }
    ],
    "textures" : [
        {
            "sampler" : 0,
            "source" : 0
        },
        {
            "sampler" : 0,
            "source" : 1
        },
        {
            "sampler" : 0,
            "source" : 2
        },
        {
            "sampler" : 0,
            "source" : 3
        }
    ],
    "images" : [
        {
            "bufferView" : 4,
            "mimeType" : "image/png",
            "name" : "jade"
        },
        {
            "bufferView" : 9,
            "mimeType" : "image/png",
            "name" : "pc_mado.png"
        },
        {
            "bufferView" : 14,
            "mimeType" : "image/png",
            "name" : "pokecen00.png"
        },
        {
            "bufferView" : 19,
            "mimeType" : "image/png",
            "name" : "pokecen_door.png"
        }
    ],
    "accessors" : [
        {
            "bufferView" : 0,
            "componentType" : 5126,
            "count" : 1554,
            "max" : [
                56.80413818359375,
                31.676679611206055,
                44.50486755371094
            ],
            "min" : [
                -60.00384521484375,
                -57.96952438354492,
                -36.44464111328125
            ],
            "type" : "VEC3"
        },
        {
            "bufferView" : 1,
            "componentType" : 5126,
            "count" : 1554,
            "type" : "VEC3"
        },
        {
            "bufferView" : 2,
            "componentType" : 5126,
            "count" : 1554,
            "type" : "VEC2"
        },
        {
            "bufferView" : 3,
            "componentType" : 5123,
            "count" : 2442,
            "type" : "SCALAR"
        },
        {
            "bufferView" : 5,
            "componentType" : 5126,
            "count" : 152,
            "max" : [
                55.8043327331543,
                13.889459609985352,
                20.627376556396484
            ],
            "min" : [
                -59.0036506652832,
                -37.953948974609375,
                -33.4692268371582
            ],
            "type" : "VEC3"
        },
        {
            "bufferView" : 6,
            "componentType" : 5126,
            "count" : 152,
            "type" : "VEC3"
        },
        {
            "bufferView" : 7,
            "componentType" : 5126,
            "count" : 152,
            "type" : "VEC2"
        },
        {
            "bufferView" : 8,
            "componentType" : 5123,
            "count" : 180,
            "type" : "SCALAR"
        },
        {
            "bufferView" : 10,
            "componentType" : 5126,
            "count" : 355,
            "max" : [
                52.38142013549805,
                32.94477081298828,
                25.697805404663086
            ],
            "min" : [
                -10.166583061218262,
                20.889795303344727,
                -27.87619400024414
            ],
            "type" : "VEC3"
        },
        {
            "bufferView" : 11,
            "componentType" : 5126,
            "count" : 355,
            "type" : "VEC3"
        },
        {
            "bufferView" : 12,
            "componentType" : 5126,
            "count" : 355,
            "type" : "VEC2"
        },
        {
            "bufferView" : 13,
            "componentType" : 5123,
            "count" : 582,
            "type" : "SCALAR"
        },
        {
            "bufferView" : 15,
            "componentType" : 5126,
            "count" : 13,
            "max" : [
                12.316131591796875,
                26.636375427246094,
                44.50486755371094
            ],
            "min" : [
                -15.516845703125,
                26.636367797851562,
                -0.9141340255737305
            ],
            "type" : "VEC3"
        },
        {
            "bufferView" : 16,
            "componentType" : 5126,
            "count" : 13,
            "type" : "VEC3"
        },
        {
            "bufferView" : 17,
            "componentType" : 5126,
            "count" : 13,
            "type" : "VEC2"
        },
        {
            "bufferView" : 18,
            "componentType" : 5123,
            "count" : 33,
            "type" : "SCALAR"
        }
    ],
    "bufferViews" : [
        {
            "buffer" : 0,
            "byteLength" : 18648,
            "byteOffset" : 0
        },
        {
            "buffer" : 0,
            "byteLength" : 18648,
            "byteOffset" : 18648
        },
        {
            "buffer" : 0,
            "byteLength" : 12432,
            "byteOffset" : 37296
        },
        {
            "buffer" : 0,
            "byteLength" : 4884,
            "byteOffset" : 49728
        },
        {
            "buffer" : 0,
            "byteLength" : 20963,
            "byteOffset" : 54612
        },
        {
            "buffer" : 0,
            "byteLength" : 1824,
            "byteOffset" : 75576
        },
        {
            "buffer" : 0,
            "byteLength" : 1824,
            "byteOffset" : 77400
        },
        {
            "buffer" : 0,
            "byteLength" : 1216,
            "byteOffset" : 79224
        },
        {
            "buffer" : 0,
            "byteLength" : 360,
            "byteOffset" : 80440
        },
        {
            "buffer" : 0,
            "byteLength" : 1224,
            "byteOffset" : 80800
        },
        {
            "buffer" : 0,
            "byteLength" : 4260,
            "byteOffset" : 82024
        },
        {
            "buffer" : 0,
            "byteLength" : 4260,
            "byteOffset" : 86284
        },
        {
            "buffer" : 0,
            "byteLength" : 2840,
            "byteOffset" : 90544
        },
        {
            "buffer" : 0,
            "byteLength" : 1164,
            "byteOffset" : 93384
        },
        {
            "buffer" : 0,
            "byteLength" : 661,
            "byteOffset" : 94548
        },
        {
            "buffer" : 0,
            "byteLength" : 156,
            "byteOffset" : 95212
        },
        {
            "buffer" : 0,
            "byteLength" : 156,
            "byteOffset" : 95368
        },
        {
            "buffer" : 0,
            "byteLength" : 104,
            "byteOffset" : 95524
        },
        {
            "buffer" : 0,
            "byteLength" : 66,
            "byteOffset" : 95628
        },
        {
            "buffer" : 0,
            "byteLength" : 5876,
            "byteOffset" : 95696
        }
    ],
    "samplers" : [
        {
            "magFilter" : 9729,
            "minFilter" : 9987
        }
    ],
    "buffers" : [
        {
            "byteLength" : 101572,
            "uri" : "data:application/octet-stream;base64,"
        }
    ]
}
